<?xml version="1.0" encoding="UTF-8" standalone="no"?>
<!DOCTYPE svg PUBLIC "-//W3C//DTD SVG 1.1//EN"
 "http://www.w3.org/Graphics/SVG/1.1/DTD/svg11.dtd">
<!-- Generated by graphviz version 2.40.1 (20161225.0304)
 -->
<!-- Title: G Pages: 1 -->
<svg width="425pt" height="439pt"
 viewBox="0.00 0.00 425.00 439.00" xmlns="http://www.w3.org/2000/svg" xmlns:xlink="http://www.w3.org/1999/xlink">
<g id="graph0" class="graph" transform="scale(1 1) rotate(0) translate(4 435)">
<title>G</title>
<polygon fill="#ffffff" stroke="transparent" points="-4,4 -4,-435 421,-435 421,4 -4,4"/>
<g id="clust1" class="cluster">
<title>cluster_root</title>
<g id="a_clust1"><a xlink:title="eventq_index=0&#10;full_system=false&#10;sim_quantum=0&#10;time_sync_enable=false&#10;time_sync_period=100000000000&#10;time_sync_spin_threshold=100000000">
<path fill="#bab6ae" stroke="#000000" d="M20,-8C20,-8 397,-8 397,-8 403,-8 409,-14 409,-20 409,-20 409,-411 409,-411 409,-417 403,-423 397,-423 397,-423 20,-423 20,-423 14,-423 8,-417 8,-411 8,-411 8,-20 8,-20 8,-14 14,-8 20,-8"/>
<text text-anchor="middle" x="208.5" y="-407.8" font-family="Arial" font-size="14.00" fill="#000000">root </text>
<text text-anchor="middle" x="208.5" y="-392.8" font-family="Arial" font-size="14.00" fill="#000000">: Root</text>
</a>
</g>
</g>
<g id="clust2" class="cluster">
<title>cluster_system</title>
<g id="a_clust2"><a xlink:title="boot_osflags=a&#10;cache_line_size=64&#10;eventq_index=0&#10;exit_on_work_items=false&#10;init_param=0&#10;kernel=&#10;kernel_addr_check=true&#10;kernel_extras=&#10;&#10;oad_addr_mask=18446744073709551615&#10;&#10;oad_offset=0&#10;mem_mode=timing&#10;mem_ranges=0:536870912&#10;memories=system.mem_ctrl&#10;mmap_using_noreserve=false&#10;multi_thread=false&#10;&#10;um_work_ids=16&#10;&#13;eadfile=&#10;&#13;edirect_paths=&#10;symbolfile=&#10;thermal_components=&#10;thermal_model=Null&#10;work_begin_ckpt_count=0&#10;work_begin_cpu_id_exit=&#45;1&#10;work_begin_exit_count=0&#10;work_cpus_ckpt_count=0&#10;work_end_ckpt_count=0&#10;work_end_exit_count=0&#10;work_item_id=&#45;1">
<path fill="#e4e7eb" stroke="#000000" d="M28,-16C28,-16 389,-16 389,-16 395,-16 401,-22 401,-28 401,-28 401,-365 401,-365 401,-371 395,-377 389,-377 389,-377 28,-377 28,-377 22,-377 16,-371 16,-365 16,-365 16,-28 16,-28 16,-22 22,-16 28,-16"/>
<text text-anchor="middle" x="208.5" y="-361.8" font-family="Arial" font-size="14.00" fill="#000000">system </text>
<text text-anchor="middle" x="208.5" y="-346.8" font-family="Arial" font-size="14.00" fill="#000000">: System</text>
</a>
</g>
</g>
<g id="clust3" class="cluster">
<title>cluster_system_membus</title>
<g id="a_clust3"><a xlink:title="clk_domain=system.clk_domain&#10;default_p_state=UNDEFINED&#10;eventq_index=0&#10;forward_latency=4&#10;frontend_latency=3&#10;max_outstanding_snoops=512&#10;max_routing_table_size=512&#10;p_state_clk_gate_bins=20&#10;p_state_clk_gate_max=1000000000000&#10;p_state_clk_gate_min=1000&#10;point_of_coherency=true&#10;point_of_unification=true&#10;power_model=&#10;&#13;esponse_latency=2&#10;snoop_filter=system.membus.snoop_filter&#10;snoop_response_latency=4&#10;system=system&#10;use_default_range=false&#10;width=16">
<path fill="#6f798c" stroke="#000000" d="M123,-155C123,-155 249,-155 249,-155 255,-155 261,-161 261,-167 261,-167 261,-234 261,-234 261,-240 255,-246 249,-246 249,-246 123,-246 123,-246 117,-246 111,-240 111,-234 111,-234 111,-167 111,-167 111,-161 117,-155 123,-155"/>
<text text-anchor="middle" x="186" y="-230.8" font-family="Arial" font-size="14.00" fill="#000000">membus </text>
<text text-anchor="middle" x="186" y="-215.8" font-family="Arial" font-size="14.00" fill="#000000">: SystemXBar</text>
</a>
</g>
</g>
<g id="clust6" class="cluster">
<title>cluster_system_mem_ctrl</title>
<g id="a_clust6"><a xlink:title="IDD0=0.055&#10;IDD02=0.0&#10;IDD2N=0.032&#10;IDD2N2=0.0&#10;IDD2P0=0.0&#10;IDD2P02=0.0&#10;IDD2P1=0.032&#10;IDD2P12=0.0&#10;IDD3N=0.038&#10;IDD3N2=0.0&#10;IDD3P0=0.0&#10;IDD3P02=0.0&#10;IDD3P1=0.038&#10;IDD3P12=0.0&#10;IDD4R=0.157&#10;IDD4R2=0.0&#10;IDD4W=0.125&#10;IDD4W2=0.0&#10;IDD5=0.235&#10;IDD52=0.0&#10;IDD6=0.02&#10;IDD62=0.0&#10;VDD=1.5&#10;VDD2=0.0&#10;activation_limit=4&#10;addr_mapping=RoRaBaCoCh&#10;bank_groups_per_rank=0&#10;banks_per_rank=8&#10;burst_length=8&#10;clk_domain=system.clk_domain&#10;conf_table_reported=true&#10;default_p_state=UNDEFINED&#10;device_bus_width=8&#10;device_rowbuffer_size=1024&#10;device_size=536870912&#10;devices_per_rank=8&#10;dll=true&#10;enable_dram_powerdown=false&#10;eventq_index=0&#10;in_addr_map=true&#10;kvm_map=true&#10;max_accesses_per_row=16&#10;mem_sched_policy=frfcfs&#10;min_writes_per_switch=16&#10;&#10;ull=false&#10;p_state_clk_gate_bins=20&#10;p_state_clk_gate_max=1000000000000&#10;p_state_clk_gate_min=1000&#10;page_policy=open_adaptive&#10;power_model=&#10;qos_masters= &#160;&#160;&#160;&#160;&#160;&#160;&#160;&#160;&#160;&#160;&#160;&#160;&#160;&#160;&#10;qos_policy=Null&#10;qos_priorities=1&#10;qos_priority_escalation=false&#10;qos_q_policy=fifo&#10;qos_syncro_scheduler=false&#10;qos_turnaround_policy=Null&#10;&#13;ange=0:536870912&#10;&#13;anks_per_channel=2&#10;&#13;ead_buffer_size=32&#10;static_backend_latency=10000&#10;static_frontend_latency=10000&#10;tBURST=5000&#10;tCCD_L=0&#10;tCCD_L_WR=0&#10;tCK=1250&#10;tCL=13750&#10;tCS=2500&#10;tRAS=35000&#10;tRCD=13750&#10;tREFI=7800000&#10;tRFC=260000&#10;tRP=13750&#10;tRRD=6000&#10;tRRD_L=0&#10;tRTP=7500&#10;tRTW=2500&#10;tWR=15000&#10;tWTR=7500&#10;tXAW=30000&#10;tXP=6000&#10;tXPDLL=0&#10;tXS=270000&#10;tXSDLL=0&#10;write_buffer_size=64&#10;write_high_thresh_perc=85&#10;write_low_thresh_perc=50">
<path fill="#5e5958" stroke="#000000" d="M36,-24C36,-24 149,-24 149,-24 155,-24 161,-30 161,-36 161,-36 161,-103 161,-103 161,-109 155,-115 149,-115 149,-115 36,-115 36,-115 30,-115 24,-109 24,-103 24,-103 24,-36 24,-36 24,-30 30,-24 36,-24"/>
<text text-anchor="middle" x="92.5" y="-99.8" font-family="Arial" font-size="14.00" fill="#000000">mem_ctrl </text>
<text text-anchor="middle" x="92.5" y="-84.8" font-family="Arial" font-size="14.00" fill="#000000">: DDR3_1600_8x8</text>
</a>
</g>
</g>
<g id="clust9" class="cluster">
<title>cluster_system_cpu</title>
<g id="a_clust9"><a xlink:title="LFSTSize=1024&#10;LQEntries=32&#10;LSQCheckLoads=true&#10;LSQDepCheckShift=4&#10;SQEntries=32&#10;SSITSize=1024&#10;activity=0&#10;backComSize=5&#10;branchPred=system.cpu.branchPred&#10;cacheLoadPorts=200&#10;cacheStorePorts=200&#10;checker=Null&#10;clk_domain=system.clk_domain&#10;commitToDecodeDelay=1&#10;commitToFetchDelay=1&#10;commitToIEWDelay=1&#10;commitToRenameDelay=1&#10;commitWidth=8&#10;cpu_id=&#45;1&#10;decodeToFetchDelay=1&#10;decodeToRenameDelay=1&#10;decodeWidth=8&#10;default_p_state=UNDEFINED&#10;dispatchWidth=8&#10;do_checkpoint_insts=true&#10;do_quiesce=true&#10;do_statistics_insts=true&#10;dtb=system.cpu.dtb&#10;eventq_index=0&#10;fetchBufferSize=64&#10;fetchQueueSize=32&#10;fetchToDecodeDelay=1&#10;fetchTrapLatency=1&#10;fetchWidth=8&#10;forwardComSize=5&#10;fuPool=system.cpu.fuPool&#10;function_trace=false&#10;function_trace_start=0&#10;iewToCommitDelay=1&#10;iewToDecodeDelay=1&#10;iewToFetchDelay=1&#10;iewToRenameDelay=1&#10;interrupts=system.cpu.interrupts&#10;isa=system.cpu.isa&#10;issueToExecuteDelay=1&#10;issueWidth=8&#10;itb=system.cpu.itb&#10;max_insts_all_threads=0&#10;max_insts_any_thread=0&#10;&#10;eedsTSO=false&#10;&#10;umIQEntries=64&#10;&#10;umPhysCCRegs=0&#10;&#10;umPhysFloatRegs=256&#10;&#10;umPhysIntRegs=256&#10;&#10;umPhysVecPredRegs=32&#10;&#10;umPhysVecRegs=256&#10;&#10;umROBEntries=192&#10;&#10;umRobs=1&#10;&#10;umThreads=1&#10;p_state_clk_gate_bins=20&#10;p_state_clk_gate_max=1000000000000&#10;p_state_clk_gate_min=1000&#10;power_gating_on_idle=false&#10;power_model=&#10;profile=0&#10;progress_interval=0&#10;pwr_gating_latency=300&#10;&#13;enameToDecodeDelay=1&#10;&#13;enameToFetchDelay=1&#10;&#13;enameToIEWDelay=2&#10;&#13;enameToROBDelay=1&#10;&#13;enameWidth=8&#10;simpoint_start_insts=&#10;smtCommitPolicy=RoundRobin&#10;smtFetchPolicy=SingleThread&#10;smtIQPolicy=Partitioned&#10;smtIQThreshold=100&#10;smtLSQPolicy=Partitioned&#10;smtLSQThreshold=100&#10;smtNumFetchingThreads=1&#10;smtROBPolicy=Partitioned&#10;smtROBThreshold=100&#10;socket_id=0&#10;squashWidth=8&#10;store_set_clear_period=250000&#10;switched_out=false&#10;syscallRetryLatency=10000&#10;system=system&#10;tracer=system.cpu.tracer&#10;trapLatency=13&#10;wait_for_remote_gdb=false&#10;wbWidth=8&#10;workload=system.cpu.workload">
<path fill="#bbc6d9" stroke="#000000" d="M181,-24C181,-24 381,-24 381,-24 387,-24 393,-30 393,-36 393,-36 393,-103 393,-103 393,-109 387,-115 381,-115 381,-115 181,-115 181,-115 175,-115 169,-109 169,-103 169,-103 169,-36 169,-36 169,-30 175,-24 181,-24"/>
<text text-anchor="middle" x="281" y="-99.8" font-family="Arial" font-size="14.00" fill="#000000">cpu </text>
<text text-anchor="middle" x="281" y="-84.8" font-family="Arial" font-size="14.00" fill="#000000">: DerivO3CPU</text>
</a>
</g>
</g>
<!-- system_system_port -->
<g id="node1" class="node">
<title>system_system_port</title>
<path fill="#b6b8bc" stroke="#000000" d="M190,-294.5C190,-294.5 262,-294.5 262,-294.5 268,-294.5 274,-300.5 274,-306.5 274,-306.5 274,-318.5 274,-318.5 274,-324.5 268,-330.5 262,-330.5 262,-330.5 190,-330.5 190,-330.5 184,-330.5 178,-324.5 178,-318.5 178,-318.5 178,-306.5 178,-306.5 178,-300.5 184,-294.5 190,-294.5"/>
<text text-anchor="middle" x="226" y="-308.8" font-family="Arial" font-size="14.00" fill="#000000">system_port</text>
</g>
<!-- system_membus_slave -->
<g id="node3" class="node">
<title>system_membus_slave</title>
<path fill="#586070" stroke="#000000" d="M211,-163.5C211,-163.5 241,-163.5 241,-163.5 247,-163.5 253,-169.5 253,-175.5 253,-175.5 253,-187.5 253,-187.5 253,-193.5 247,-199.5 241,-199.5 241,-199.5 211,-199.5 211,-199.5 205,-199.5 199,-193.5 199,-187.5 199,-187.5 199,-175.5 199,-175.5 199,-169.5 205,-163.5 211,-163.5"/>
<text text-anchor="middle" x="226" y="-177.8" font-family="Arial" font-size="14.00" fill="#000000">slave</text>
</g>
<!-- system_system_port&#45;&gt;system_membus_slave -->
<g id="edge1" class="edge">
<title>system_system_port&#45;&gt;system_membus_slave</title>
<path fill="none" stroke="#000000" d="M226,-294.285C226,-272.3856 226,-235.3861 226,-209.7663"/>
<polygon fill="#000000" stroke="#000000" points="229.5001,-209.5603 226,-199.5603 222.5001,-209.5603 229.5001,-209.5603"/>
</g>
<!-- system_membus_master -->
<g id="node2" class="node">
<title>system_membus_master</title>
<path fill="#586070" stroke="#000000" d="M131.5,-163.5C131.5,-163.5 168.5,-163.5 168.5,-163.5 174.5,-163.5 180.5,-169.5 180.5,-175.5 180.5,-175.5 180.5,-187.5 180.5,-187.5 180.5,-193.5 174.5,-199.5 168.5,-199.5 168.5,-199.5 131.5,-199.5 131.5,-199.5 125.5,-199.5 119.5,-193.5 119.5,-187.5 119.5,-187.5 119.5,-175.5 119.5,-175.5 119.5,-169.5 125.5,-163.5 131.5,-163.5"/>
<text text-anchor="middle" x="150" y="-177.8" font-family="Arial" font-size="14.00" fill="#000000">master</text>
</g>
<!-- system_mem_ctrl_port -->
<g id="node4" class="node">
<title>system_mem_ctrl_port</title>
<path fill="#4b4746" stroke="#000000" d="M111,-32.5C111,-32.5 141,-32.5 141,-32.5 147,-32.5 153,-38.5 153,-44.5 153,-44.5 153,-56.5 153,-56.5 153,-62.5 147,-68.5 141,-68.5 141,-68.5 111,-68.5 111,-68.5 105,-68.5 99,-62.5 99,-56.5 99,-56.5 99,-44.5 99,-44.5 99,-38.5 105,-32.5 111,-32.5"/>
<text text-anchor="middle" x="126" y="-46.8" font-family="Arial" font-size="14.00" fill="#000000">port</text>
</g>
<!-- system_membus_master&#45;&gt;system_mem_ctrl_port -->
<g id="edge2" class="edge">
<title>system_membus_master&#45;&gt;system_mem_ctrl_port</title>
<path fill="none" stroke="#000000" d="M146.6629,-163.285C142.6329,-141.2878 135.8117,-104.0554 131.1158,-78.4238"/>
<polygon fill="#000000" stroke="#000000" points="134.5536,-77.7658 129.3088,-68.5603 127.6682,-79.0273 134.5536,-77.7658"/>
</g>
<!-- system_cpu_icache_port -->
<g id="node5" class="node">
<title>system_cpu_icache_port</title>
<path fill="#959ead" stroke="#000000" d="M305,-32.5C305,-32.5 373,-32.5 373,-32.5 379,-32.5 385,-38.5 385,-44.5 385,-44.5 385,-56.5 385,-56.5 385,-62.5 379,-68.5 373,-68.5 373,-68.5 305,-68.5 305,-68.5 299,-68.5 293,-62.5 293,-56.5 293,-56.5 293,-44.5 293,-44.5 293,-38.5 299,-32.5 305,-32.5"/>
<text text-anchor="middle" x="339" y="-46.8" font-family="Arial" font-size="14.00" fill="#000000">icache_port</text>
</g>
<!-- system_membus_slave&#45;&gt;system_cpu_icache_port -->
<g id="edge3" class="edge">
<title>system_membus_slave&#45;&gt;system_cpu_icache_port</title>
<path fill="none" stroke="#000000" d="M248.5189,-155.8159C259.2891,-143.4975 272.3459,-128.5135 284,-115 297.4554,-99.3978 312.6429,-81.5703 323.6439,-68.6177"/>
<polygon fill="#000000" stroke="#000000" points="245.7606,-153.6532 241.8094,-163.4837 251.0286,-158.2628 245.7606,-153.6532"/>
</g>
<!-- system_cpu_dcache_port -->
<g id="node6" class="node">
<title>system_cpu_dcache_port</title>
<path fill="#959ead" stroke="#000000" d="M189,-32.5C189,-32.5 263,-32.5 263,-32.5 269,-32.5 275,-38.5 275,-44.5 275,-44.5 275,-56.5 275,-56.5 275,-62.5 269,-68.5 263,-68.5 263,-68.5 189,-68.5 189,-68.5 183,-68.5 177,-62.5 177,-56.5 177,-56.5 177,-44.5 177,-44.5 177,-38.5 183,-32.5 189,-32.5"/>
<text text-anchor="middle" x="226" y="-46.8" font-family="Arial" font-size="14.00" fill="#000000">dcache_port</text>
</g>
<!-- system_membus_slave&#45;&gt;system_cpu_dcache_port -->
<g id="edge4" class="edge">
<title>system_membus_slave&#45;&gt;system_cpu_dcache_port</title>
<path fill="none" stroke="#000000" d="M226,-153.0522C226,-127.3789 226,-90.3883 226,-68.5603"/>
<polygon fill="#000000" stroke="#000000" points="222.5001,-153.285 226,-163.285 229.5001,-153.285 222.5001,-153.285"/>
</g>
</g>
</svg>
